<svg width="16" height="21" viewBox="0 0 16 21" fill="none" xmlns="http://www.w3.org/2000/svg">
<path d="M14.2961 3.63687C13.4832 2.78962 12.5074 2.11548 11.4273 1.65495C10.3473 1.19443 9.18524 0.957031 8.0111 0.957031C6.83695 0.957031 5.67492 1.19443 4.59486 1.65495C3.51479 2.11548 2.53899 2.78962 1.7261 3.63687C0.196097 5.63687 -0.273903 8.63687 0.586097 11.7169C1.4661 15.0469 3.8161 17.4569 5.7061 19.3869L6.6261 20.3869C6.80478 20.5765 7.01879 20.7293 7.2561 20.8369C7.4938 20.9424 7.751 20.997 8.0111 20.997C8.27119 20.997 8.52839 20.9424 8.7661 20.8369C8.99899 20.7312 9.20946 20.5818 9.3861 20.3969L10.3161 19.3969C12.2061 17.4669 14.5561 15.0569 15.4361 11.7269C16.2461 8.63687 15.8261 5.63687 14.2961 3.63687ZM8.0061 11.8869C7.25956 11.887 6.53275 11.6471 5.93301 11.2026C5.33326 10.758 4.89237 10.1324 4.67544 9.4181C4.45851 8.70377 4.47704 7.93862 4.72829 7.23564C4.97955 6.53265 5.45021 5.9291 6.07077 5.5141C6.69133 5.09911 7.4289 4.89467 8.17455 4.93099C8.9202 4.9673 9.63441 5.24244 10.2117 5.71577C10.789 6.1891 11.1988 6.83553 11.3806 7.5596C11.5623 8.28367 11.5064 9.047 11.2211 9.73687C10.9575 10.372 10.5112 10.9145 9.93883 11.2955C9.36642 11.6765 8.69372 11.8788 8.0061 11.8769V11.8869Z" fill="#24D2A9"/>
</svg>
