<svg width="48" height="48" viewBox="0 0 48 48" fill="none" xmlns="http://www.w3.org/2000/svg">
<path d="M33.9199 17.9768C32.7415 18.6944 31.5727 19.464 30.4407 20.2104L29.0167 21.148C25.6167 23.388 22.2903 23.3808 18.8487 21.148L17.6223 20.3416C16.3815 19.52 15.0823 18.6712 13.7623 17.9064C12.7627 17.3128 11.6409 16.9547 10.4822 16.8594C9.32354 16.7641 8.15838 16.9341 7.07521 17.3565C5.99204 17.7789 5.01935 18.4425 4.23101 19.297C3.44267 20.1515 2.8594 21.1744 2.52549 22.288L2.50709 22.3464C2.46147 22.4972 2.42224 22.6499 2.38949 22.804C2.36111 22.9231 2.33577 23.0428 2.31349 23.1632C2.29749 23.2488 2.28469 23.3416 2.27349 23.4312C2.25055 23.5863 2.23267 23.7421 2.21989 23.8984C2.21296 23.9971 2.20789 24.0957 2.20469 24.1944C2.20149 24.2928 2.19189 24.3664 2.19189 24.452C2.19189 24.4952 2.19749 24.5384 2.19829 24.5776C2.19829 24.7608 2.21109 24.9432 2.22549 25.1256C2.22549 25.1528 2.22549 25.1808 2.23269 25.2112C2.40637 27.1034 3.2768 28.8637 4.67509 30.1504C6.07482 31.4363 7.90165 32.1574 9.8023 32.1744C11.315 32.1563 12.7916 31.7097 14.0607 30.8864C15.7471 29.84 17.4023 28.7504 18.6599 27.924C22.2535 25.5728 25.7375 25.5624 29.3103 27.924L29.6927 28.1816C31.3741 29.3462 33.1248 30.4074 34.9351 31.3592C36.5763 32.1392 38.4431 32.304 40.1956 31.8236C41.9481 31.3432 43.4699 30.2495 44.4839 28.7416C45.4885 27.2731 45.9521 25.5012 45.7954 23.7289C45.6387 21.9565 44.8714 20.2935 43.6247 19.024C42.3782 17.7533 40.7296 16.9543 38.9599 16.7632C37.1901 16.572 35.4089 17.0007 33.9199 17.976" fill="#06B48B"/>
<path d="M24.0871 17.976C26.1213 17.9742 28.0717 17.1654 29.5103 15.7272C30.5834 14.6545 31.314 13.2874 31.6095 11.7991C31.905 10.3108 31.7521 8.76835 31.1703 7.36702C30.5884 5.9657 29.6037 4.76861 28.3409 3.92739C27.0781 3.08617 25.594 2.63868 24.0767 2.6416H23.9983C22.4923 2.64594 21.0213 3.09645 19.7712 3.93624C18.521 4.77603 17.5478 5.96743 16.9743 7.36C16.5938 8.2844 16.3995 9.27477 16.4023 10.2744V10.3608C16.4114 12.389 17.2258 14.3306 18.6663 15.7584C20.1079 17.1869 22.0577 17.9845 24.0871 17.976ZM23.9463 30.9632H23.9047C22.8889 30.9656 21.8836 31.1701 20.9476 31.5648C20.0116 31.9596 19.1635 32.5366 18.4527 33.2624C17.0492 34.7051 16.2639 36.6384 16.2639 38.6512C16.2639 40.664 17.0492 42.5973 18.4527 44.04C19.1626 44.7677 20.0103 45.3467 20.9464 45.7432C21.8825 46.1397 22.8881 46.3459 23.9047 46.3496H23.9463C25.9532 46.2977 27.8606 45.4644 29.2623 44.0272C30.308 42.9555 31.0181 41.6019 31.3058 40.1324C31.5935 38.663 31.4461 37.1416 30.8817 35.7546C30.3173 34.3677 29.3605 33.1757 28.1286 32.3246C26.8967 31.4735 25.4432 31.0003 23.9463 30.9632Z" fill="#06B48B"/>
</svg>
