<svg width="24" height="24" viewBox="0 0 24 24" fill="none" xmlns="http://www.w3.org/2000/svg">
<path d="M21.3302 19.0354C21.2045 19.5984 20.8932 20.1028 20.4462 20.4674C19.9578 20.9628 19.3758 21.3561 18.7341 21.6246C18.0924 21.8931 17.4038 22.0314 16.7082 22.0314H16.3832C14.9232 21.9522 13.4936 21.5826 12.1782 20.9444H12.1682C11.8632 20.8024 11.5482 20.6604 11.2432 20.4874C9.70757 19.6264 8.29909 18.5562 7.05816 17.3074C5.44771 15.7948 4.12616 14.0015 3.15815 12.0154C2.6437 10.927 2.30033 9.76564 2.14016 8.57243C1.90462 7.32344 2.0463 6.03259 2.54715 4.86443C2.86335 4.33741 3.24953 3.85569 3.69515 3.43243C3.89567 3.20568 4.14082 3.02274 4.41526 2.89507C4.68971 2.7674 4.98755 2.69773 5.29015 2.69043C5.61926 2.7268 5.93786 2.82818 6.22746 2.98869C6.51706 3.14919 6.77189 3.36563 6.97716 3.62543C7.43415 4.12243 7.99215 4.64043 8.45015 5.11843L9.08015 5.73843C9.45015 6.06643 9.67916 6.52443 9.72016 7.01843C9.72016 7.47143 9.55315 7.90843 9.25215 8.24743C9.05722 8.48452 8.85028 8.71148 8.63215 8.92743L8.42915 9.14043C8.31115 9.25043 8.22116 9.38643 8.16515 9.53743C8.11515 9.6861 8.09515 9.83843 8.10515 9.99443C8.26615 10.4254 8.51916 10.8174 8.84516 11.1424C9.35416 11.8324 9.86215 12.4324 10.3802 13.0824C11.3171 14.1702 12.4291 15.0938 13.6702 15.8154C13.7972 15.9084 13.9432 15.9704 14.0982 15.9974C14.2322 16.0074 14.3682 15.9874 14.4942 15.9374C14.8492 15.7284 15.1642 15.4604 15.4282 15.1444C15.7832 14.7097 16.2929 14.4294 16.8502 14.3624C17.3864 14.3698 17.898 14.5891 18.2732 14.9724C18.4762 15.1444 18.6992 15.3784 18.9132 15.6024L19.2172 15.9164L19.5322 16.2214L20.0712 16.7694C20.3925 17.0548 20.6938 17.3598 20.9752 17.6844C21.2572 18.0744 21.3842 18.5574 21.3302 19.0354ZM17.6842 12.0764C17.4827 12.0743 17.2901 11.9934 17.1476 11.8509C17.0052 11.7085 16.9242 11.5159 16.9222 11.3144C16.9232 10.7392 16.8107 10.1694 16.591 9.63779C16.3714 9.10616 16.049 8.62311 15.6422 8.21637C15.2355 7.80962 14.7524 7.48718 14.2208 7.26754C13.6891 7.0479 13.1194 6.93538 12.5442 6.93643C12.3421 6.93643 12.1482 6.85615 12.0053 6.71324C11.8624 6.57034 11.7822 6.37652 11.7822 6.17443C11.7822 5.97233 11.8624 5.77852 12.0053 5.63561C12.1482 5.49271 12.3421 5.41243 12.5442 5.41243C13.3195 5.41124 14.0876 5.5631 14.8042 5.85928C15.5208 6.15546 16.1719 6.59016 16.7201 7.13844C17.2684 7.68673 17.7031 8.33783 17.9993 9.05443C18.2955 9.77103 18.4473 10.539 18.4462 11.3144C18.4464 11.4146 18.4269 11.5138 18.3887 11.6063C18.3505 11.6989 18.2944 11.783 18.2236 11.8538C18.1527 11.9246 18.0686 11.9808 17.9761 12.019C17.8835 12.0572 17.7843 12.0767 17.6842 12.0764Z" fill="#24D2A9"/>
<path d="M21.2088 11.7203C21.0075 11.7182 20.815 11.6374 20.6726 11.4951C20.5302 11.3529 20.4491 11.1605 20.4468 10.9592C20.4483 9.97915 20.2567 9.00836 19.8826 8.10243C19.5086 7.1965 18.9597 6.3732 18.2671 5.67966C17.5746 4.98611 16.7521 4.43593 15.8468 4.06059C14.9414 3.68525 13.9709 3.49212 12.9908 3.49225C12.8884 3.49596 12.7864 3.47901 12.6908 3.44241C12.5952 3.40581 12.5079 3.35031 12.4342 3.27924C12.3605 3.20816 12.3019 3.12296 12.2618 3.02872C12.2218 2.93448 12.2012 2.83314 12.2012 2.73075C12.2012 2.62836 12.2218 2.52702 12.2618 2.43278C12.3019 2.33854 12.3605 2.25334 12.4342 2.18226C12.5079 2.11119 12.5952 2.05569 12.6908 2.01909C12.7864 1.98249 12.8884 1.96554 12.9908 1.96925C14.1709 1.96925 15.3394 2.20185 16.4296 2.65377C17.5197 3.10568 18.5101 3.76804 19.3441 4.60297C20.1781 5.4379 20.8394 6.42902 21.2901 7.51968C21.7408 8.61034 21.9721 9.77914 21.9708 10.9592C21.971 11.0594 21.9515 11.1586 21.9133 11.2512C21.8751 11.3437 21.819 11.4278 21.7482 11.4987C21.6774 11.5695 21.5933 11.6256 21.5007 11.6638C21.4081 11.702 21.3089 11.7205 21.2088 11.7203Z" fill="#24D2A9"/>
</svg>
